# xmcd
#
# Track frame offsets:
#	150
#	17242
#	27027
#	53647
#	64192
#	77425
#	90330
#	103390
#	118105
#	128375
#	137992
#	148367
#	168017
#	176652
#	196007
#	205642
#	228132
#	247200
#
# Disc length: 3445 seconds
#
# Revision: 1
# Processed by: cddbd v1.5.1PL0 Copyright (c) Steve Scherf et al.
# Submitted via: audiograbber 1.83.01
#
DISCID=ed0d7312
DTITLE=Various Artist - Country Stars Live On Stage vol.2
DYEAR=1991
DGENRE=Country
TTITLE0=Tanya Tucker - The Night They Drove Old Dixie Down
TTITLE1=Faron Young - Hello Walls
TTITLE2=Rex Allen - Cool Water
TTITLE3=Bellamy Brothers - Sugar Daddy
TTITLE4=Ronnie Robbins - El Paso
TTITLE5=Mel McDaniel - Baby's Got Her Blue Jeans OnMel McDaniel
TTITLE6=Razzy Bailey - What Time Do You Have To Be Back To Heaven
TTITLE7=Razzy Bailey - Rockin' In The Parking Lot
TTITLE8=Nitty Gritty Dirt Band - High Horse
TTITLE9=Becky Hobbs - Hottest In Texas
TTITLE10=Forester Sisters - Just In Case
TTITLE11=Nitty Gritty Dirt Band - Cadillac Ranch
TTITLE12=Ronny McDowall - I Dream Of Woman Like You
TTITLE13=Razzy Bailey - Midnight Hauler
TTITLE14=Beck Hobbs- Knock Knock
TTITLE15=Boxcar Willie - Cold Cold Heart
TTITLE16=Nitty Gritty Dirt Band - Mr.Bojangles
TTITLE17=Bellamy Brothers - Let Your Love Flow
EXTD=
EXTT0=
EXTT1=
EXTT2=
EXTT3=
EXTT4=
EXTT5=
EXTT6=
EXTT7=
EXTT8=
EXTT9=
EXTT10=
EXTT11=
EXTT12=
EXTT13=
EXTT14=
EXTT15=
EXTT16=
EXTT17=
PLAYORDER=
